Coordinates
version=1
nRows=16
nColumns=36
inDegrees=yes

Units are S.I. units (second, meters, Newtons, ...)
If the header above contains a line with 'inDegrees', this indicates whether rotational values are in degrees (yes) or radians (no).

endheader
time	pelvis_tilt	pelvis_list	pelvis_rotation	pelvis_tx	pelvis_ty	pelvis_tz	hip_flexion_r	hip_adduction_r	hip_rotation_r	knee_angle_r	knee_angle_r_beta	ankle_angle_r	subtalar_angle_r	mtp_angle_r	hip_flexion_l	hip_adduction_l	hip_rotation_l	knee_angle_l	knee_angle_l_beta	ankle_angle_l	subtalar_angle_l	mtp_angle_l	lumbar_extension	lumbar_bending	lumbar_rotation	arm_flex_r	arm_add_r	arm_rot_r	elbow_flex_r	pro_sup_r	arm_flex_l	arm_add_l	arm_rot_l	elbow_flex_l	pro_sup_l
      1.18000000	     -0.84844125	      1.24276750	     -0.92430480	      1.15856352	      1.14341686	     -0.21126336	     24.77278395	      0.31934735	      1.35996482	      9.04021672	      0.15778155	      3.96390666	     -4.58532145	     -6.95481009	     -7.29835037	      5.87809122	     -0.00408176	      7.45732920	      0.13015495	     11.89310259	     -3.32942212	     -6.95481009	    -11.16156273	     -1.29091718	     -3.53356843	    -12.12446816	     -4.99855650	    -10.86984533	     46.26203430	    111.11784681	     -8.58328545	     -6.83309245	    -12.56531695	     56.99127806	    109.83887853
      1.19000000	     -0.84123299	      1.19549664	     -0.88492626	      1.16897649	      1.14227833	     -0.21099749	     24.58220245	      0.48602274	      0.51827361	      7.77663651	      0.13572791	      4.00351248	     -3.73527514	     -6.96198508	     -7.76219667	      5.79859767	     -0.08923285	      7.70919126	      0.13455077	     12.15420751	     -3.23336192	     -6.96198508	    -11.26101278	     -1.13090661	     -3.46630279	    -12.01179939	     -5.01592546	    -10.84343563	     46.28750286	    111.14125434	     -8.51449351	     -6.78181276	    -12.53923691	     56.94526538	    109.81642202
      1.20000000	     -0.96994335	      1.29391432	     -0.90125325	      1.17949570	      1.14092110	     -0.21058530	     24.64162817	      0.55976695	     -0.06841774	      6.97333848	      0.12170772	      4.13008190	     -3.58646902	     -6.96382758	     -8.08472272	      5.87631578	     -0.15261989	      7.93967543	      0.13857348	     12.21588067	     -3.24185579	     -6.96382758	    -11.15343629	     -1.16633749	     -3.28360589	    -11.99945800	     -5.00652951	    -10.81758144	     46.28241523	    111.14916468	     -8.50341081	     -6.73459101	    -12.55301460	     56.97002503	    109.81186966
      1.21000000	     -0.93201415	      1.15248809	     -0.82755590	      1.19016789	      1.13993109	     -0.21027044	     24.43549033	      0.83181277	     -0.90745745	      6.26358681	      0.10932021	      4.09931229	     -3.09707426	     -6.96811636	     -8.49278585	      5.68132645	     -0.20363883	      8.40231478	      0.14664806	     12.38310588	     -3.20733691	     -6.96811636	    -11.29310765	     -0.87067096	     -3.23248838	    -11.90314779	     -5.05046500	    -10.84088644	     46.29518418	    111.16117805	     -8.48085557	     -6.65522871	    -12.54678964	     56.84019944	    109.78946506
      1.22000000	     -1.02662963	      1.24476607	     -0.94942722	      1.20091826	      1.13869484	     -0.20972270	     24.52396511	      0.96646926	     -1.15222693	      6.10506725	      0.10655352	      4.15063315	     -3.11858675	     -6.96864455	     -8.86822730	      5.78025688	     -0.16953020	      8.61791895	      0.15041106	     12.37535650	     -3.18649700	     -6.96864455	    -11.22338369	     -0.88135207	     -3.09494773	    -11.80277532	     -5.04857220	    -10.83899208	     46.33177749	    111.16497467	     -8.60946775	     -6.59884748	    -12.54074354	     56.77878962	    109.78324887
      1.23000000	     -0.94449694	      1.10172862	     -0.77044538	      1.21196298	      1.13782893	     -0.20951229	     24.33193609	      1.18383753	     -2.13606349	      6.04369931	      0.10548245	      4.25203762	     -3.07463381	     -6.97260238	     -9.24732759	      5.55362722	     -0.32235519	      9.24451902	      0.16134729	     12.47059724	     -3.21223019	     -6.97260238	    -11.35818365	     -0.57075262	     -3.04064050	    -11.82303535	     -5.08645570	    -10.88285913	     46.33612126	    111.17798206	     -8.55031603	     -6.47374502	    -12.56777412	     56.60895988	    109.75568995
      1.24000000	     -0.97489998	      1.04426630	     -0.70284795	      1.22316356	      1.13680165	     -0.20918268	     24.37040743	      1.33332859	     -2.95882315	      6.43826410	      0.11236891	      4.53278294	     -2.47021974	     -6.98703697	     -9.55039673	      5.42208047	     -0.52070578	      9.78074956	      0.17070628	     12.72301736	     -2.74636985	     -6.98703697	    -11.32561388	     -0.35781630	     -2.97435494	    -11.86427655	     -5.08897483	    -11.07796335	     46.51257551	    111.24019701	     -8.61049071	     -6.36887253	    -12.53912003	     56.34963359	    109.71340805
      1.25000000	     -1.01702193	      1.07654338	     -0.68576522	      1.23472598	      1.13578704	     -0.20878425	     24.24955519	      1.45589042	     -2.90076243	      6.72678986	      0.11740463	      4.51987406	     -2.50353891	     -6.98759143	     -9.95258637	      5.42374463	     -0.41644921	     10.11934780	      0.17661594	     12.63084559	     -2.72531354	     -6.98759143	    -11.19440491	     -0.28101967	     -2.91881268	    -11.92449476	     -5.10814190	    -11.09269621	     46.48790986	    111.24017968	     -8.84425865	     -6.27724832	    -12.51955412	     56.24968441	    109.70605903
      1.26000000	     -0.97959927	      1.00886981	     -0.60789111	      1.24600966	      1.13490493	     -0.20845919	     24.17508885	      1.64318803	     -2.80868855	      7.46537668	      0.13029540	      4.53175175	     -2.68173436	     -6.98890335	    -10.27141983	      5.29451494	     -0.31312676	     10.76905846	      0.18795553	     12.41927742	     -2.75397997	     -6.98890335	    -11.30366918	     -0.03353071	     -2.92996044	    -11.84319911	     -5.18157115	    -11.12869479	     46.52903161	    111.24668293	     -8.97855732	     -6.18740047	    -12.52259408	     56.08371709	    109.69031055
      1.27000000	     -1.12315648	      0.98748497	     -0.44273746	      1.25746718	      1.13379750	     -0.20818235	     24.32065519	      1.73939677	     -2.95541464	      8.35933928	      0.14589799	      4.52482706	     -3.22815167	     -6.99567164	    -10.24860095	      5.16197584	     -0.56690514	     11.69079304	      0.20404283	     12.17398303	     -2.95413620	     -6.99567164	    -11.13594370	      0.15463364	     -3.01622704	    -11.89724198	     -5.20184886	    -11.20189919	     46.67628778	    111.28953818	     -9.10294295	     -6.04629665	    -12.62397398	     55.76585965	    109.65527073
      1.28000000	     -1.12918363	      0.96186638	     -0.30073249	      1.26923018	      1.13295716	     -0.20786043	     24.18714671	      1.85810042	     -2.72085031	      9.09236342	      0.15869168	      4.25430831	     -3.46609980	     -6.99971315	    -10.44494781	      5.03861189	     -0.58421242	     12.49770903	      0.21812617	     11.90352798	     -3.02349234	     -6.99971315	    -11.09189380	      0.35114599	     -3.10515182	    -11.92940959	     -5.24011557	    -11.26057105	     46.70942804	    111.30528029	     -9.30494572	     -5.93591254	    -12.66395209	     55.48664129	    109.63222653
      1.29000000	     -1.24225090	      0.87626007	     -0.15997678	      1.28108877	      1.13206344	     -0.20743848	     24.08778172	      2.08617156	     -2.07347652	      9.68234154	      0.16898874	      3.26575566	     -4.53971117	     -7.02206021	    -10.45158687	      4.82541875	     -0.70317473	     13.44296604	      0.23462402	     11.62552521	     -2.99394774	     -7.02206021	    -10.90326694	      0.61279622	     -3.15094162	    -12.00298279	     -5.27759546	    -11.37521925	     46.70147238	    111.35490062	     -9.51272782	     -5.79665786	    -12.73712787	     55.11164648	    109.64186062
      1.30000000	     -1.14027229	      0.80774327	     -0.01801164	      1.29321270	      1.13155711	     -0.20709325	     23.77082523	      2.23102687	     -1.74848422	     10.33853597	      0.18044149	      2.86634784	     -4.47985672	     -7.02350419	    -10.75009693	      4.65429061	     -0.53562451	     14.28088009	      0.24924838	     11.25788503	     -2.96804382	     -7.02350419	    -10.95552769	      0.86727382	     -3.21408028	    -12.05066707	     -5.35739031	    -11.41850442	     46.67696501	    111.34858356	     -9.75690936	     -5.67300108	    -12.74773023	     54.86429986	    109.62290694
      1.31000000	     -1.17789314	      0.65366295	      0.18534188	      1.30542543	      1.13104327	     -0.20663772	     23.49711653	      2.48848520	     -1.27635630	     10.71113566	      0.18694458	      1.03885143	     -5.95929139	     -7.04246412	    -10.62435614	      4.28981499	     -0.99152209	     15.61029823	      0.27245110	     10.73479727	     -3.00081845	     -7.04246412	    -10.80073301	      1.21853778	     -3.30677907	    -12.16059638	     -5.39679328	    -11.51106152	     46.63074429	    111.29928963	     -9.92538380	     -5.47377205	    -12.93295201	     54.25276858	    109.62733087
      1.32000000	     -1.00658021	      0.52875350	      0.36801544	      1.31786878	      1.13090340	     -0.20626429	     23.05883771	      2.63500616	     -1.23482280	     11.24476278	      0.19625813	      0.18307349	     -6.07082892	     -7.04646511	    -10.75190468	      3.97657383	     -1.19911529	     16.87816246	      0.29457951	     10.03267070	     -3.03224101	     -7.04646511	    -10.88049226	      1.54830536	     -3.38810121	    -12.24425140	     -5.47594227	    -11.55923821	     46.58165977	    111.27835320	    -10.15668153	     -5.30010865	    -13.00994851	     53.83624950	    109.60195268
      1.33000000	     -0.93481042	      0.29009308	      0.50304819	      1.33039689	      1.13079170	     -0.20569052	     22.66312346	      2.98300214	     -0.65426203	     11.65193601	      0.20336465	     -1.72794680	     -7.70425828	     -7.06698829	    -10.66627540	      3.49568629	     -1.58215588	     18.32053766	      0.31975370	      9.35086528	     -2.76927409	     -7.06698829	    -10.82005157	      2.00327781	     -3.35226469	    -12.36782125	     -5.57829044	    -11.65882412	     46.49617414	    111.19674365	    -10.35088758	     -5.06717370	    -13.16808557	     53.25345873	    109.65763272
